<svg xmlns="http://www.w3.org/2000/svg" xmlns:oryx="http://oryx-editor.org" id="_08D25406-F2FF-4670-9B93-E88B8F4DEFBA" width="538" height="201" xmlns:xlink="http://www.w3.org/1999/xlink" xmlns:svg="http://www.w3.org/2000/svg"><defs><marker id="_A1B3B191-1DE5-4B1B-A87C-AD4BFCE21FF2start" refX="1" refY="5" markerUnits="userSpaceOnUse" markerWidth="17" markerHeight="11" orient="auto" fill="#000000" stroke="#000000"> 	  		<path id="_A1B3B191-1DE5-4B1B-A87C-AD4BFCE21FF2conditional" d="M 0 5 L 8 0 L 16 5 L 8 10 L 0 5" fill="white" stroke="#000000" stroke-width="1" display="none"/> 			<path id="_A1B3B191-1DE5-4B1B-A87C-AD4BFCE21FF2default" d="M 5 0 L 11 10" fill="white" stroke="#000000" stroke-width="1" display="none"/> 	  	</marker><marker id="_A1B3B191-1DE5-4B1B-A87C-AD4BFCE21FF2end" refX="15" refY="6" markerUnits="userSpaceOnUse" markerWidth="15" markerHeight="12" orient="auto" fill="#000000" stroke="#000000"> 	  		<path id="_A1B3B191-1DE5-4B1B-A87C-AD4BFCE21FF2frame2" d="M 0 1 L 15 6 L 0 11z" fill="#000000" stroke="#000000" stroke-linejoin="round" stroke-width="2"/> 	  	</marker><marker id="_B1A88F4F-4A56-46B6-9060-12CD103BCA12start" refX="1" refY="5" markerUnits="userSpaceOnUse" markerWidth="17" markerHeight="11" orient="auto" fill="#000000" stroke="#000000"> 	  		<path id="_B1A88F4F-4A56-46B6-9060-12CD103BCA12conditional" d="M 0 5 L 8 0 L 16 5 L 8 10 L 0 5" fill="white" stroke="#000000" stroke-width="1" display="none"/> 			<path id="_B1A88F4F-4A56-46B6-9060-12CD103BCA12default" d="M 5 0 L 11 10" fill="white" stroke="#000000" stroke-width="1" display="none"/> 	  	</marker><marker id="_B1A88F4F-4A56-46B6-9060-12CD103BCA12end" refX="15" refY="6" markerUnits="userSpaceOnUse" markerWidth="15" markerHeight="12" orient="auto" fill="#000000" stroke="#000000"> 	  		<path id="_B1A88F4F-4A56-46B6-9060-12CD103BCA12frame2" d="M 0 1 L 15 6 L 0 11z" fill="#000000" stroke="#000000" stroke-linejoin="round" stroke-width="2"/> 	  	</marker><marker id="_0DD31B73-A297-4310-929A-9CC420B16618start" refX="1" refY="5" markerUnits="userSpaceOnUse" markerWidth="17" markerHeight="11" orient="auto" fill="#000000" stroke="#000000"> 	  		<path id="_0DD31B73-A297-4310-929A-9CC420B16618conditional" d="M 0 5 L 8 0 L 16 5 L 8 10 L 0 5" fill="white" stroke="#000000" stroke-width="1" display="none"/> 			<path id="_0DD31B73-A297-4310-929A-9CC420B16618default" d="M 5 0 L 11 10" fill="white" stroke="#000000" stroke-width="1" display="none"/> 	  	</marker><marker id="_0DD31B73-A297-4310-929A-9CC420B16618end" refX="15" refY="6" markerUnits="userSpaceOnUse" markerWidth="15" markerHeight="12" orient="auto" fill="#000000" stroke="#000000"> 	  		<path id="_0DD31B73-A297-4310-929A-9CC420B16618frame2" d="M 0 1 L 15 6 L 0 11z" fill="#000000" stroke="#000000" stroke-linejoin="round" stroke-width="2"/> 	  	</marker></defs><g stroke="none" font-family="Verdana, sans-serif" font-size-adjust="none" font-style="normal" font-variant="normal" font-weight="normal" line-heigth="normal" font-size="12"><g class="stencils" transform="translate(15, 16)"><g class="me"/><g class="children"><g id="_A98C8B7F-F40A-42FF-B1EA-6C0C051D9C7F" bpmn2nodeid="processStartEvent"><g class="stencils" transform="translate(105, 105)"><g class="me"><g pointer-events="fill" id="_A98C8B7F-F40A-42FF-B1EA-6C0C051D9C7F">        <defs id="_A98C8B7F-F40A-42FF-B1EA-6C0C051D9C7F__A98C8B7F-F40A-42FF-B1EA-6C0C051D9C7F_5"> 		<radialGradient id="_A98C8B7F-F40A-42FF-B1EA-6C0C051D9C7Fbackground" cx="10%" cy="10%" r="100%" fx="10%" fy="10%"> 			<stop offset="0%" stop-color="#ffffff" stop-opacity="1" id="_A98C8B7F-F40A-42FF-B1EA-6C0C051D9C7F__A98C8B7F-F40A-42FF-B1EA-6C0C051D9C7F_6"/> 			<stop id="_A98C8B7F-F40A-42FF-B1EA-6C0C051D9C7Ffill_el" offset="100%" stop-color="#9acd32" stop-opacity="1"/> 		</radialGradient> 	</defs> 	     <circle id="_A98C8B7F-F40A-42FF-B1EA-6C0C051D9C7Fbg_frame" cx="15" cy="15" r="15" stroke="#000000" fill="url(#_A98C8B7F-F40A-42FF-B1EA-6C0C051D9C7Fbackground) white" stroke-width="1" style="stroke-dasharray: 5.5, 3"/>      <circle id="_A98C8B7F-F40A-42FF-B1EA-6C0C051D9C7Fframe" cx="15" cy="15" r="15" stroke="#000000" fill="none" stroke-width="1" display="inherit"/>  	<text font-size="11" id="_A98C8B7F-F40A-42FF-B1EA-6C0C051D9C7Ftext_name" x="15" y="32" oryx:align="top center" stroke="black" stroke-width="0pt" letter-spacing="-0.01px" fill="#000000" text-anchor="middle" transform="rotate(0 15 32)" visibility="inherit" oryx:fontSize="11"/>   </g></g><g class="children" style="overflow:hidden"/><g class="edge"/></g><g class="controls"><g class="dockers"/><g class="magnets" transform="translate(105, 105)"><g pointer-events="all" display="none" transform="translate(7, 7)"><circle cx="8" cy="8" r="4" stroke="none" fill="red" fill-opacity="0.3"/></g></g></g></g><g id="_271A3FA1-C791-43D8-AF5C-9D59762723EB" bpmn2nodeid="_5A4E68E5-FC93-4E79-BE52-A0C628504205"><g class="stencils" transform="translate(180, 80)"><g class="me"><g pointer-events="fill" oryx:minimumSize="50 40" id="_271A3FA1-C791-43D8-AF5C-9D59762723EB">   	<defs id="_271A3FA1-C791-43D8-AF5C-9D59762723EB__271A3FA1-C791-43D8-AF5C-9D59762723EB_17"> 		<radialGradient id="_271A3FA1-C791-43D8-AF5C-9D59762723EBbackground" cx="10%" cy="10%" r="100%" fx="10%" fy="10%"> 			<stop offset="0%" stop-color="#ffffff" stop-opacity="1" id="_271A3FA1-C791-43D8-AF5C-9D59762723EB__271A3FA1-C791-43D8-AF5C-9D59762723EB_18"/> 			<stop id="_271A3FA1-C791-43D8-AF5C-9D59762723EBfill_el" offset="100%" stop-color="#fafad2" stop-opacity="1"/> 		</radialGradient> 		<radialGradient id="_271A3FA1-C791-43D8-AF5C-9D59762723EBborderbackground" cx="10%" cy="10%" r="100%" fx="10%" fy="10%"> 			<stop offset="0%" stop-color="#ffffff" stop-opacity="1" id="_271A3FA1-C791-43D8-AF5C-9D59762723EB__271A3FA1-C791-43D8-AF5C-9D59762723EB_19"/> 			<stop id="_271A3FA1-C791-43D8-AF5C-9D59762723EBfill_border" offset="100%" stop-color="#000000" stop-opacity="1" stroke="#000000"/> 		</radialGradient> 	</defs> 	 	<rect id="_271A3FA1-C791-43D8-AF5C-9D59762723EBtext_frame" oryx:anchors="bottom top right left" x="1" y="1" width="94" height="79" rx="10" ry="10" stroke="none" stroke-width="0" fill="none"/> 	<rect id="_271A3FA1-C791-43D8-AF5C-9D59762723EBbg_frame" oryx:resize="vertical horizontal" x="0" y="0" width="100" height="80" rx="10" ry="10" stroke="#000000" stroke-width="1" fill="url(#_271A3FA1-C791-43D8-AF5C-9D59762723EBbackground) #ffffcc"/> 		<text font-size="12" id="_271A3FA1-C791-43D8-AF5C-9D59762723EBtext_name" x="50" y="40" oryx:align="middle center" oryx:fittoelem="text_frame" stroke="black" text-anchor="middle" stroke-width="0pt" letter-spacing="-0.01px" fill="#000000" transform="rotate(0 50 40)" visibility="inherit" oryx:fontSize="12"><tspan x="50" y="40" dy="5">StartA</tspan></text>     <g id="_271A3FA1-C791-43D8-AF5C-9D59762723EBmanualTask" transform="scale(0.7,0.7) translate(8,8)" display="none">     	<path oryx:anchors="top left" id="_271A3FA1-C791-43D8-AF5C-9D59762723EBframe" style="opacity:1;fill:none;fill-opacity:1;stroke-width:1" d="M0.5,3.751l4.083-3.25c0,0,11.166,0.083,12.083,0.083s-2.417,2.917-1.5,2.917     s11.667,0,12.584,0c1.166,1.708-0.168,3.167-0.834,3.667s0.875,1.917-1,4.417c-0.75,0.25,0.75,1.875-1.333,3.333     c-1.167,0.583,0.583,1.542-1.25,2.833c-1.167,0-20.833,0.083-20.833,0.083l-2-1.333V3.751z" stroke="#000000"/> 		<path id="_271A3FA1-C791-43D8-AF5C-9D59762723EBframe2" oryx:anchors="top left" style="opacity:1;fill:none;stroke-width:2" d="M 13.5 7 L 27 7" stroke="#000000"/> 		<path id="_271A3FA1-C791-43D8-AF5C-9D59762723EBframe3" oryx:anchors="top left" style="opacity:1;fill:none;stroke-width:2" d="M 13.5 11 L 26 11" stroke="#000000"/> 		<path id="_271A3FA1-C791-43D8-AF5C-9D59762723EBframe4" oryx:anchors="top left" style="opacity:1;fill:none;stroke-width:1.5" d="M 14 14.5 L 25 14.5" stroke="#000000"/> 		<path id="_271A3FA1-C791-43D8-AF5C-9D59762723EBframe5" oryx:anchors="top left" style="opacity:1;fill:none;stroke-width:1.5" d="M 8.2 3.1 L 15 3.1" stroke="#000000"/> 	</g> 	 	<g id="_271A3FA1-C791-43D8-AF5C-9D59762723EBbusinessRuleTask" transform="scale(0.7,0.7) translate(8,8)" display="none"> 		<rect id="_271A3FA1-C791-43D8-AF5C-9D59762723EBframe6" oryx:anchors="top left" x="0" y="0" width="22" height="4" style="opacity:1;fill:#B3B1B3;fill-opacity:1;" stroke="#000000"/> 		<rect id="_271A3FA1-C791-43D8-AF5C-9D59762723EBframe7" oryx:anchors="top left" x="0" y="4" style="opacity:1;fill:none;" width="22" height="12" stroke="#000000"/> 		<path id="_271A3FA1-C791-43D8-AF5C-9D59762723EBframe8" oryx:anchors="top left" style="opacity:1;fill:none;" d="M 0 10 L 22 10" stroke="#000000"/> 		<path id="_271A3FA1-C791-43D8-AF5C-9D59762723EBframe9" oryx:anchors="top left" style="opacity:1; fill:none;" d="M 7 4 L 7 16" stroke="#000000"/> 	</g> 	 	<g id="_271A3FA1-C791-43D8-AF5C-9D59762723EBscriptTask" transform="scale(0.7,0.7) translate(8,8)" display="inherit"> 		<path oryx:anchors="top left" id="_271A3FA1-C791-43D8-AF5C-9D59762723EBframe10" style="opacity:1;fill:none;" stroke="#000000" d="M6.402,0.5h14.5c0,0-5.833,2.833-5.833,5.583s4.417,6,4.417,9.167    s-4.167,5.083-4.167,5.083H0.235c0,0,5-2.667,5-5s-4.583-6.75-4.583-9.25S6.402,0.5,6.402,0.5z"/> 		<path oryx:anchors="top left" id="_271A3FA1-C791-43D8-AF5C-9D59762723EBframe11" style="opacity:1;fill:none;stroke-width:1.5" d="M 3.5 4.5 L 13.5 4.5" stroke="#000000"/> 		<path oryx:anchors="top left" id="_271A3FA1-C791-43D8-AF5C-9D59762723EBframe12" style="opacity:1;fill:none;stroke-width:1.5" d="M 3.8 8.5 L 13.8 8.5" stroke="#000000"/> 		<path oryx:anchors="top left" id="_271A3FA1-C791-43D8-AF5C-9D59762723EBframe13" style="opacity:1;fill:none;stroke-width:1.5" d="M 6.3 12.5 L 16.3 12.5" stroke="#000000"/> 		<path oryx:anchors="top left" id="_271A3FA1-C791-43D8-AF5C-9D59762723EBframe14" style="opacity:1;fill:none;stroke-width:1.5" d="M 6.5 16.5 L 16.5 16.5" stroke="#000000"/> 	</g> 	 	<g id="_271A3FA1-C791-43D8-AF5C-9D59762723EBuserTask" transform="scale(0.7,0.7) translate(8,8)" display="none"> 		<path id="_271A3FA1-C791-43D8-AF5C-9D59762723EBframe15" oryx:anchors="top left" style="opacity:1;fill:#F4F6F7" stroke="#000000" d="M0.585,24.167h24.083v-7.833c0,0-2.333-3.917-7.083-5.167h-9.25    c-4.417,1.333-7.833,5.75-7.833,5.75L0.585,24.167z"/> 		<path id="_271A3FA1-C791-43D8-AF5C-9D59762723EBframe16" oryx:anchors="top left" style="opacity:1;fill:none" d="M 6 20 L 6 24" stroke="#000000"/> 		<path id="_271A3FA1-C791-43D8-AF5C-9D59762723EBframe17" oryx:anchors="top left" style="opacity:1;fill:none" d="M 20 20 L 20 24" stroke="#000000"/> 		<circle id="_271A3FA1-C791-43D8-AF5C-9D59762723EBframe18" oryx:anchors="top left" fill="black" cx="13.002" cy="5.916" r="5.417" stroke="#000000"/> 		<path id="_271A3FA1-C791-43D8-AF5C-9D59762723EBframe19" oryx:anchors="top left" style="opacity:1;fill:#F0EFF0;" stroke="#000000" d="M8.043,7.083c0,0,2.814-2.426,5.376-1.807s4.624-0.693,4.624-0.693    c0.25,1.688,0.042,3.75-1.458,5.584c0,0,1.083,0.75,1.083,1.5s0.125,1.875-1,3s-5.5,1.25-6.75,0S8.668,12.834,8.668,12    s0.583-1.25,1.25-1.917C8.835,9.5,7.419,7.708,8.043,7.083z"/> 	</g> 	 	<g id="_271A3FA1-C791-43D8-AF5C-9D59762723EBserviceTask" transform="scale(0.7,0.7) translate(8,8)" display="none"> 		<polygon oryx:anchors="top left" id="_271A3FA1-C791-43D8-AF5C-9D59762723EBframe20" style="opacity:1;fill:#ffffff" stroke="#000000" points="15.392,5.064 17.954,2.502 20.347,4.895 17.786,7.455     18.729,9.732 22.353,9.732 22.353,13.115 18.731,13.115 17.788,15.392 20.351,17.955 17.958,20.347 15.397,17.786 13.12,18.729     13.12,22.353 9.737,22.353 9.737,18.731 7.46,17.788 4.897,20.35 2.506,17.958 5.066,15.397 4.124,13.12 0.5,13.12 0.5,9.737     4.121,9.737 5.065,7.461 2.503,4.898 4.895,2.506 7.455,5.066 9.732,4.125 9.732,0.5 13.116,0.5 13.116,4.121 "/> 		<circle oryx:anchors="top left" id="_271A3FA1-C791-43D8-AF5C-9D59762723EBframe21" style="opacity:1;fill:none" stroke="#000000" cx="11.427" cy="11.426" r="3.714"/> 		<polygon oryx:anchors="top left" id="_271A3FA1-C791-43D8-AF5C-9D59762723EBframe22" style="opacity:1;fill:#ffffff" stroke="#000000" points="21.392,11.064 23.954,8.502 26.347,10.895 23.786,13.455     24.729,15.732 28.353,15.732 28.353,19.115 24.731,19.115 23.788,21.392 26.351,23.955 23.958,26.347 21.397,23.786 19.12,24.729     19.12,28.353 15.737,28.353 15.737,24.731 13.46,23.788 10.897,26.35 8.506,23.958 11.066,21.397 10.124,19.12 6.5,19.12     6.5,15.737 10.121,15.737 11.065,13.461 8.503,10.898 10.895,8.506 13.455,11.066 15.732,10.125 15.732,6.5 19.116,6.5     19.116,10.121 "/> 		<circle oryx:anchors="top left" id="_271A3FA1-C791-43D8-AF5C-9D59762723EBframe23" style="opacity:1;fill:none;" stroke="#000000" cx="17.427" cy="17.426" r="3.714"/> 	</g> 	 	<g id="_271A3FA1-C791-43D8-AF5C-9D59762723EBsendTask" display="none"> 		<path id="_271A3FA1-C791-43D8-AF5C-9D59762723EBstframe24" oryx:anchors="left top" stroke="#FFFFFF" fill="black" stroke-width="1" d="M8,11 L8,21 L24,21 L24,11 L16,17z"/> 		<path id="_271A3FA1-C791-43D8-AF5C-9D59762723EBstframe25" oryx:anchors="left top" stroke="#FFFFFF" fill="black" stroke-width="1" d="M7,10 L16,17 L25 10z"/> 	</g> 	 	<g id="_271A3FA1-C791-43D8-AF5C-9D59762723EBreceiveTask" display="none"> 		<path id="_271A3FA1-C791-43D8-AF5C-9D59762723EBframe26" oryx:anchors="left top" stroke="#000000" fill="none" stroke-width="1" d="M8,11 L8,21 L24,21 L24,11z M8,11 L16,17 L24,11"/> 	</g> 	 	<g id="_271A3FA1-C791-43D8-AF5C-9D59762723EBnone" display="inherit"/>  	<g id="_271A3FA1-C791-43D8-AF5C-9D59762723EBsequential" display="none">         <path oryx:anchors="bottom" fill="none" stroke="#000000" stroke-width="2" d="M46,76h10M46,72h10 M46,68h10" id="_271A3FA1-C791-43D8-AF5C-9D59762723EB__271A3FA1-C791-43D8-AF5C-9D59762723EB_20"/>     </g>   </g></g><g class="children" style="overflow:hidden"/><g class="edge"/></g><g class="controls"><g class="dockers"/><g class="magnets" transform="translate(180, 80)"><g pointer-events="all" display="none" transform="translate(-7, 12)"><circle cx="8" cy="8" r="4" stroke="none" fill="red" fill-opacity="0.3"/></g><g pointer-events="all" display="none" transform="translate(-7, 32)"><circle cx="8" cy="8" r="4" stroke="none" fill="red" fill-opacity="0.3"/></g><g pointer-events="all" display="none" transform="translate(-7, 52)"><circle cx="8" cy="8" r="4" stroke="none" fill="red" fill-opacity="0.3"/></g><g pointer-events="all" display="none" transform="translate(17, 71)"><circle cx="8" cy="8" r="4" stroke="none" fill="red" fill-opacity="0.3"/></g><g pointer-events="all" display="none" transform="translate(42, 71)"><circle cx="8" cy="8" r="4" stroke="none" fill="red" fill-opacity="0.3"/></g><g pointer-events="all" display="none" transform="translate(67, 71)"><circle cx="8" cy="8" r="4" stroke="none" fill="red" fill-opacity="0.3"/></g><g pointer-events="all" display="none" transform="translate(91, 12)"><circle cx="8" cy="8" r="4" stroke="none" fill="red" fill-opacity="0.3"/></g><g pointer-events="all" display="none" transform="translate(91, 32)"><circle cx="8" cy="8" r="4" stroke="none" fill="red" fill-opacity="0.3"/></g><g pointer-events="all" display="none" transform="translate(91, 52)"><circle cx="8" cy="8" r="4" stroke="none" fill="red" fill-opacity="0.3"/></g><g pointer-events="all" display="none" transform="translate(17, -7)"><circle cx="8" cy="8" r="4" stroke="none" fill="red" fill-opacity="0.3"/></g><g pointer-events="all" display="none" transform="translate(42, -7)"><circle cx="8" cy="8" r="4" stroke="none" fill="red" fill-opacity="0.3"/></g><g pointer-events="all" display="none" transform="translate(67, -7)"><circle cx="8" cy="8" r="4" stroke="none" fill="red" fill-opacity="0.3"/></g><g pointer-events="all" display="none" transform="translate(42, 32)"><circle cx="8" cy="8" r="4" stroke="none" fill="red" fill-opacity="0.3"/></g></g></g></g><g id="_A86EE8AA-6F8C-4BB7-98C3-E32CEB19FC58" bpmn2nodeid="_02DF469C-4BC3-408D-8B71-A1DB9E638B3F"><g class="stencils" transform="translate(325, 80)"><g class="me"><g pointer-events="fill" oryx:minimumSize="50 40" id="_A86EE8AA-6F8C-4BB7-98C3-E32CEB19FC58">   	<defs id="_A86EE8AA-6F8C-4BB7-98C3-E32CEB19FC58__A86EE8AA-6F8C-4BB7-98C3-E32CEB19FC58_17"> 		<radialGradient id="_A86EE8AA-6F8C-4BB7-98C3-E32CEB19FC58background" cx="10%" cy="10%" r="100%" fx="10%" fy="10%"> 			<stop offset="0%" stop-color="#ffffff" stop-opacity="1" id="_A86EE8AA-6F8C-4BB7-98C3-E32CEB19FC58__A86EE8AA-6F8C-4BB7-98C3-E32CEB19FC58_18"/> 			<stop id="_A86EE8AA-6F8C-4BB7-98C3-E32CEB19FC58fill_el" offset="100%" stop-color="#fafad2" stop-opacity="1"/> 		</radialGradient> 		<radialGradient id="_A86EE8AA-6F8C-4BB7-98C3-E32CEB19FC58borderbackground" cx="10%" cy="10%" r="100%" fx="10%" fy="10%"> 			<stop offset="0%" stop-color="#ffffff" stop-opacity="1" id="_A86EE8AA-6F8C-4BB7-98C3-E32CEB19FC58__A86EE8AA-6F8C-4BB7-98C3-E32CEB19FC58_19"/> 			<stop id="_A86EE8AA-6F8C-4BB7-98C3-E32CEB19FC58fill_border" offset="100%" stop-color="#FF6600" stop-opacity="1" stroke="#FF6600"/> 		</radialGradient> 	</defs> 	 	<rect id="_A86EE8AA-6F8C-4BB7-98C3-E32CEB19FC58text_frame" oryx:anchors="bottom top right left" x="1" y="1" width="94" height="79" rx="10" ry="10" stroke="none" stroke-width="0" fill="none"/> 	<rect id="_A86EE8AA-6F8C-4BB7-98C3-E32CEB19FC58bg_frame" oryx:resize="vertical horizontal" x="0" y="0" width="100" height="80" rx="10" ry="10" stroke="#FF6600" stroke-width="1" fill="url(#_A86EE8AA-6F8C-4BB7-98C3-E32CEB19FC58background) #ffffcc"/> 		<text font-size="12" id="_A86EE8AA-6F8C-4BB7-98C3-E32CEB19FC58text_name" x="50" y="40" oryx:align="middle center" oryx:fittoelem="text_frame" stroke="black" text-anchor="middle" stroke-width="0pt" letter-spacing="-0.01px" fill="#000000" transform="rotate(0 50 40)" visibility="inherit" oryx:fontSize="12"><tspan x="50" y="40" dy="5">t</tspan><tspan x="50" y="40" dy="17">e</tspan><tspan x="50" y="40" dy="29">st</tspan></text>     <g id="_A86EE8AA-6F8C-4BB7-98C3-E32CEB19FC58manualTask" transform="scale(0.7,0.7) translate(8,8)" display="none">     	<path oryx:anchors="top left" id="_A86EE8AA-6F8C-4BB7-98C3-E32CEB19FC58frame" style="opacity:1;fill:none;fill-opacity:1;stroke-width:1" d="M0.5,3.751l4.083-3.25c0,0,11.166,0.083,12.083,0.083s-2.417,2.917-1.5,2.917     s11.667,0,12.584,0c1.166,1.708-0.168,3.167-0.834,3.667s0.875,1.917-1,4.417c-0.75,0.25,0.75,1.875-1.333,3.333     c-1.167,0.583,0.583,1.542-1.25,2.833c-1.167,0-20.833,0.083-20.833,0.083l-2-1.333V3.751z" stroke="#FF6600"/> 		<path id="_A86EE8AA-6F8C-4BB7-98C3-E32CEB19FC58frame2" oryx:anchors="top left" style="opacity:1;fill:none;stroke-width:2" d="M 13.5 7 L 27 7" stroke="#FF6600"/> 		<path id="_A86EE8AA-6F8C-4BB7-98C3-E32CEB19FC58frame3" oryx:anchors="top left" style="opacity:1;fill:none;stroke-width:2" d="M 13.5 11 L 26 11" stroke="#FF6600"/> 		<path id="_A86EE8AA-6F8C-4BB7-98C3-E32CEB19FC58frame4" oryx:anchors="top left" style="opacity:1;fill:none;stroke-width:1.5" d="M 14 14.5 L 25 14.5" stroke="#FF6600"/> 		<path id="_A86EE8AA-6F8C-4BB7-98C3-E32CEB19FC58frame5" oryx:anchors="top left" style="opacity:1;fill:none;stroke-width:1.5" d="M 8.2 3.1 L 15 3.1" stroke="#FF6600"/> 	</g> 	 	<g id="_A86EE8AA-6F8C-4BB7-98C3-E32CEB19FC58businessRuleTask" transform="scale(0.7,0.7) translate(8,8)" display="none"> 		<rect id="_A86EE8AA-6F8C-4BB7-98C3-E32CEB19FC58frame6" oryx:anchors="top left" x="0" y="0" width="22" height="4" style="opacity:1;fill:#B3B1B3;fill-opacity:1;" stroke="#FF6600"/> 		<rect id="_A86EE8AA-6F8C-4BB7-98C3-E32CEB19FC58frame7" oryx:anchors="top left" x="0" y="4" style="opacity:1;fill:none;" width="22" height="12" stroke="#FF6600"/> 		<path id="_A86EE8AA-6F8C-4BB7-98C3-E32CEB19FC58frame8" oryx:anchors="top left" style="opacity:1;fill:none;" d="M 0 10 L 22 10" stroke="#FF6600"/> 		<path id="_A86EE8AA-6F8C-4BB7-98C3-E32CEB19FC58frame9" oryx:anchors="top left" style="opacity:1; fill:none;" d="M 7 4 L 7 16" stroke="#FF6600"/> 	</g> 	 	<g id="_A86EE8AA-6F8C-4BB7-98C3-E32CEB19FC58scriptTask" transform="scale(0.7,0.7) translate(8,8)" display="none"> 		<path oryx:anchors="top left" id="_A86EE8AA-6F8C-4BB7-98C3-E32CEB19FC58frame10" style="opacity:1;fill:none;" stroke="#FF6600" d="M6.402,0.5h14.5c0,0-5.833,2.833-5.833,5.583s4.417,6,4.417,9.167    s-4.167,5.083-4.167,5.083H0.235c0,0,5-2.667,5-5s-4.583-6.75-4.583-9.25S6.402,0.5,6.402,0.5z"/> 		<path oryx:anchors="top left" id="_A86EE8AA-6F8C-4BB7-98C3-E32CEB19FC58frame11" style="opacity:1;fill:none;stroke-width:1.5" d="M 3.5 4.5 L 13.5 4.5" stroke="#FF6600"/> 		<path oryx:anchors="top left" id="_A86EE8AA-6F8C-4BB7-98C3-E32CEB19FC58frame12" style="opacity:1;fill:none;stroke-width:1.5" d="M 3.8 8.5 L 13.8 8.5" stroke="#FF6600"/> 		<path oryx:anchors="top left" id="_A86EE8AA-6F8C-4BB7-98C3-E32CEB19FC58frame13" style="opacity:1;fill:none;stroke-width:1.5" d="M 6.3 12.5 L 16.3 12.5" stroke="#FF6600"/> 		<path oryx:anchors="top left" id="_A86EE8AA-6F8C-4BB7-98C3-E32CEB19FC58frame14" style="opacity:1;fill:none;stroke-width:1.5" d="M 6.5 16.5 L 16.5 16.5" stroke="#FF6600"/> 	</g> 	 	<g id="_A86EE8AA-6F8C-4BB7-98C3-E32CEB19FC58userTask" transform="scale(0.7,0.7) translate(8,8)" display="inherit"> 		<path id="_A86EE8AA-6F8C-4BB7-98C3-E32CEB19FC58frame15" oryx:anchors="top left" style="opacity:1;fill:#F4F6F7" stroke="#FF6600" d="M0.585,24.167h24.083v-7.833c0,0-2.333-3.917-7.083-5.167h-9.25    c-4.417,1.333-7.833,5.75-7.833,5.75L0.585,24.167z"/> 		<path id="_A86EE8AA-6F8C-4BB7-98C3-E32CEB19FC58frame16" oryx:anchors="top left" style="opacity:1;fill:none" d="M 6 20 L 6 24" stroke="#FF6600"/> 		<path id="_A86EE8AA-6F8C-4BB7-98C3-E32CEB19FC58frame17" oryx:anchors="top left" style="opacity:1;fill:none" d="M 20 20 L 20 24" stroke="#FF6600"/> 		<circle id="_A86EE8AA-6F8C-4BB7-98C3-E32CEB19FC58frame18" oryx:anchors="top left" fill="black" cx="13.002" cy="5.916" r="5.417" stroke="#FF6600"/> 		<path id="_A86EE8AA-6F8C-4BB7-98C3-E32CEB19FC58frame19" oryx:anchors="top left" style="opacity:1;fill:#F0EFF0;" stroke="#FF6600" d="M8.043,7.083c0,0,2.814-2.426,5.376-1.807s4.624-0.693,4.624-0.693    c0.25,1.688,0.042,3.75-1.458,5.584c0,0,1.083,0.75,1.083,1.5s0.125,1.875-1,3s-5.5,1.25-6.75,0S8.668,12.834,8.668,12    s0.583-1.25,1.25-1.917C8.835,9.5,7.419,7.708,8.043,7.083z"/> 	</g> 	 	<g id="_A86EE8AA-6F8C-4BB7-98C3-E32CEB19FC58serviceTask" transform="scale(0.7,0.7) translate(8,8)" display="none"> 		<polygon oryx:anchors="top left" id="_A86EE8AA-6F8C-4BB7-98C3-E32CEB19FC58frame20" style="opacity:1;fill:#ffffff" stroke="#FF6600" points="15.392,5.064 17.954,2.502 20.347,4.895 17.786,7.455     18.729,9.732 22.353,9.732 22.353,13.115 18.731,13.115 17.788,15.392 20.351,17.955 17.958,20.347 15.397,17.786 13.12,18.729     13.12,22.353 9.737,22.353 9.737,18.731 7.46,17.788 4.897,20.35 2.506,17.958 5.066,15.397 4.124,13.12 0.5,13.12 0.5,9.737     4.121,9.737 5.065,7.461 2.503,4.898 4.895,2.506 7.455,5.066 9.732,4.125 9.732,0.5 13.116,0.5 13.116,4.121 "/> 		<circle oryx:anchors="top left" id="_A86EE8AA-6F8C-4BB7-98C3-E32CEB19FC58frame21" style="opacity:1;fill:none" stroke="#FF6600" cx="11.427" cy="11.426" r="3.714"/> 		<polygon oryx:anchors="top left" id="_A86EE8AA-6F8C-4BB7-98C3-E32CEB19FC58frame22" style="opacity:1;fill:#ffffff" stroke="#FF6600" points="21.392,11.064 23.954,8.502 26.347,10.895 23.786,13.455     24.729,15.732 28.353,15.732 28.353,19.115 24.731,19.115 23.788,21.392 26.351,23.955 23.958,26.347 21.397,23.786 19.12,24.729     19.12,28.353 15.737,28.353 15.737,24.731 13.46,23.788 10.897,26.35 8.506,23.958 11.066,21.397 10.124,19.12 6.5,19.12     6.5,15.737 10.121,15.737 11.065,13.461 8.503,10.898 10.895,8.506 13.455,11.066 15.732,10.125 15.732,6.5 19.116,6.5     19.116,10.121 "/> 		<circle oryx:anchors="top left" id="_A86EE8AA-6F8C-4BB7-98C3-E32CEB19FC58frame23" style="opacity:1;fill:none;" stroke="#FF6600" cx="17.427" cy="17.426" r="3.714"/> 	</g> 	 	<g id="_A86EE8AA-6F8C-4BB7-98C3-E32CEB19FC58sendTask" display="none"> 		<path id="_A86EE8AA-6F8C-4BB7-98C3-E32CEB19FC58stframe24" oryx:anchors="left top" stroke="#FFFFFF" fill="black" stroke-width="1" d="M8,11 L8,21 L24,21 L24,11 L16,17z"/> 		<path id="_A86EE8AA-6F8C-4BB7-98C3-E32CEB19FC58stframe25" oryx:anchors="left top" stroke="#FFFFFF" fill="black" stroke-width="1" d="M7,10 L16,17 L25 10z"/> 	</g> 	 	<g id="_A86EE8AA-6F8C-4BB7-98C3-E32CEB19FC58receiveTask" display="none"> 		<path id="_A86EE8AA-6F8C-4BB7-98C3-E32CEB19FC58frame26" oryx:anchors="left top" stroke="#FF6600" fill="none" stroke-width="1" d="M8,11 L8,21 L24,21 L24,11z M8,11 L16,17 L24,11"/> 	</g> 	 	<g id="_A86EE8AA-6F8C-4BB7-98C3-E32CEB19FC58none" display="inherit"/>  	<g id="_A86EE8AA-6F8C-4BB7-98C3-E32CEB19FC58sequential" display="none">         <path oryx:anchors="bottom" fill="none" stroke="#000000" stroke-width="2" d="M46,76h10M46,72h10 M46,68h10" id="_A86EE8AA-6F8C-4BB7-98C3-E32CEB19FC58__A86EE8AA-6F8C-4BB7-98C3-E32CEB19FC58_20"/>     </g>   </g></g><g class="children" style="overflow:hidden"/><g class="edge"/></g><g class="controls"><g class="dockers"/><g class="magnets" transform="translate(325, 80)"><g pointer-events="all" display="none" transform="translate(-7, 12)"><circle cx="8" cy="8" r="4" stroke="none" fill="red" fill-opacity="0.3"/></g><g pointer-events="all" display="none" transform="translate(-7, 32)"><circle cx="8" cy="8" r="4" stroke="none" fill="red" fill-opacity="0.3"/></g><g pointer-events="all" display="none" transform="translate(-7, 52)"><circle cx="8" cy="8" r="4" stroke="none" fill="red" fill-opacity="0.3"/></g><g pointer-events="all" display="none" transform="translate(17, 71)"><circle cx="8" cy="8" r="4" stroke="none" fill="red" fill-opacity="0.3"/></g><g pointer-events="all" display="none" transform="translate(42, 71)"><circle cx="8" cy="8" r="4" stroke="none" fill="red" fill-opacity="0.3"/></g><g pointer-events="all" display="none" transform="translate(67, 71)"><circle cx="8" cy="8" r="4" stroke="none" fill="red" fill-opacity="0.3"/></g><g pointer-events="all" display="none" transform="translate(91, 12)"><circle cx="8" cy="8" r="4" stroke="none" fill="red" fill-opacity="0.3"/></g><g pointer-events="all" display="none" transform="translate(91, 32)"><circle cx="8" cy="8" r="4" stroke="none" fill="red" fill-opacity="0.3"/></g><g pointer-events="all" display="none" transform="translate(91, 52)"><circle cx="8" cy="8" r="4" stroke="none" fill="red" fill-opacity="0.3"/></g><g pointer-events="all" display="none" transform="translate(17, -7)"><circle cx="8" cy="8" r="4" stroke="none" fill="red" fill-opacity="0.3"/></g><g pointer-events="all" display="none" transform="translate(42, -7)"><circle cx="8" cy="8" r="4" stroke="none" fill="red" fill-opacity="0.3"/></g><g pointer-events="all" display="none" transform="translate(67, -7)"><circle cx="8" cy="8" r="4" stroke="none" fill="red" fill-opacity="0.3"/></g><g pointer-events="all" display="none" transform="translate(42, 32)"><circle cx="8" cy="8" r="4" stroke="none" fill="red" fill-opacity="0.3"/></g></g></g></g><g id="_45356A9E-F11E-4D58-B2FE-68466FF50766" bpmn2nodeid="_0B707B91-89D6-4DE5-A3AF-4133116B1086"><g class="stencils" transform="translate(470, 106)"><g class="me"><g pointer-events="fill" id="_45356A9E-F11E-4D58-B2FE-68466FF50766">      <defs id="_45356A9E-F11E-4D58-B2FE-68466FF50766__45356A9E-F11E-4D58-B2FE-68466FF50766_5"> 		<radialGradient id="_45356A9E-F11E-4D58-B2FE-68466FF50766background" cx="10%" cy="10%" r="100%" fx="10%" fy="10%"> 			<stop offset="0%" stop-color="#ffffff" stop-opacity="1" id="_45356A9E-F11E-4D58-B2FE-68466FF50766__45356A9E-F11E-4D58-B2FE-68466FF50766_6"/> 			<stop id="_45356A9E-F11E-4D58-B2FE-68466FF50766fill_el" offset="100%" stop-color="#ff6347" stop-opacity="1"/> 		</radialGradient> 	</defs> 	     <circle id="_45356A9E-F11E-4D58-B2FE-68466FF50766bg_frame" cx="14" cy="14" r="14" stroke="#000000" fill="url(#_45356A9E-F11E-4D58-B2FE-68466FF50766background) white" stroke-width="3"/> 	<text font-size="11" id="_45356A9E-F11E-4D58-B2FE-68466FF50766text_name" x="14" y="30" oryx:align="top center" stroke="black" stroke-width="0pt" letter-spacing="-0.01px" fill="#000000" text-anchor="middle" transform="rotate(0 14 30)" visibility="inherit" oryx:fontSize="11"/>   </g></g><g class="children" style="overflow:hidden"/><g class="edge"/></g><g class="controls"><g class="dockers"/><g class="magnets" transform="translate(470, 106)"><g pointer-events="all" display="none" transform="translate(6, 6)"><circle cx="8" cy="8" r="4" stroke="none" fill="red" fill-opacity="0.3"/></g></g></g></g></g><g class="edge"><g id="_A1B3B191-1DE5-4B1B-A87C-AD4BFCE21FF2" bpmn2nodeid="_00F5DE09-4F29-4E47-BB67-437D0F32FCD8"><g class="stencils"><g class="me"><g pointer-events="painted" bpmn2nodeid="_FE716016-69B4-40ED-B22D-48BB38DC9314"><path id="_A1B3B191-1DE5-4B1B-A87C-AD4BFCE21FF2_1" d="M135.609375 120L179.15625 120 " stroke="#000000" fill="none" stroke-width="2" stroke-linecap="round" stroke-linejoin="round" marker-start="url(#_A1B3B191-1DE5-4B1B-A87C-AD4BFCE21FF2start)" marker-end="url(#_A1B3B191-1DE5-4B1B-A87C-AD4BFCE21FF2end)"/></g><text id="_A1B3B191-1DE5-4B1B-A87C-AD4BFCE21FF2text_name" font-size="12" x="149.609375" y="106" oryx:edgePosition="startTop" stroke-width="0pt" letter-spacing="-0.01px" fill="#000000" text-anchor="start" transform="rotate(360 135.609375 120)" visibility="inherit" oryx:fontSize="12"/></g><g class="children" style="overflow:hidden"/><g class="edge"/></g><g class="controls"><g class="dockers"/><g class="magnets"/></g></g><g id="_B1A88F4F-4A56-46B6-9060-12CD103BCA12" bpmn2nodeid="_045448F5-4A15-4850-A7D5-2DD2E6C022CA"><g class="stencils"><g class="me"><g pointer-events="painted" bpmn2nodeid="_2F89DE9B-72B4-4C17-B1DB-1C86FC611F0B"><path id="_B1A88F4F-4A56-46B6-9060-12CD103BCA12_1" d="M280.84375 120L324.15625 120 " stroke="#000000" fill="none" stroke-width="2" stroke-linecap="round" stroke-linejoin="round" marker-start="url(#_B1A88F4F-4A56-46B6-9060-12CD103BCA12start)" marker-end="url(#_B1A88F4F-4A56-46B6-9060-12CD103BCA12end)"/></g><text id="_B1A88F4F-4A56-46B6-9060-12CD103BCA12text_name" font-size="12" x="294.84375" y="106" oryx:edgePosition="startTop" stroke-width="0pt" letter-spacing="-0.01px" fill="#000000" text-anchor="start" transform="rotate(360 280.84375 120)" visibility="inherit" oryx:fontSize="12"/></g><g class="children" style="overflow:hidden"/><g class="edge"/></g><g class="controls"><g class="dockers"/><g class="magnets"/></g></g><g id="_0DD31B73-A297-4310-929A-9CC420B16618" bpmn2nodeid="_B6B36F42-79FD-4140-81F2-0DDC298AED92"><g class="stencils"><g class="me"><g pointer-events="painted" bpmn2nodeid="_BB2917CE-DCA8-4148-9486-B5448AF1EB3A"><path id="_0DD31B73-A297-4310-929A-9CC420B16618_1" d="M425.390625 120L469.375 120 " stroke="#000000" fill="none" stroke-width="2" stroke-linecap="round" stroke-linejoin="round" marker-start="url(#_0DD31B73-A297-4310-929A-9CC420B16618start)" marker-end="url(#_0DD31B73-A297-4310-929A-9CC420B16618end)"/></g><text id="_0DD31B73-A297-4310-929A-9CC420B16618text_name" font-size="12" x="439.390625" y="106" oryx:edgePosition="startTop" stroke-width="0pt" letter-spacing="-0.01px" fill="#000000" text-anchor="start" transform="rotate(360 425.390625 120)" visibility="inherit" oryx:fontSize="12"/></g><g class="children" style="overflow:hidden"/><g class="edge"/></g><g class="controls"><g class="dockers"/><g class="magnets"/></g></g></g><text id="_70EF2E08-32DE-4ED4-8B72-547DE68C023E" style="stroke-width:1;fill:rgb(177,194,214);font-family:arial;font-weight:bold" font-size="12" onclick="ORYX.Plugins.CanvasTitle.openTextualAnalysis()" onmouseover="ORYX.Plugins.CanvasTitle.addToolTip('_70EF2E08-32DE-4ED4-8B72-547DE68C023E')" transform="translate(10, 20)">test v.1.0 (FintanTest.test)</text></g></g></svg>