<svg xmlns="http://www.w3.org/2000/svg" xmlns:oryx="http://oryx-editor.org" id="_10FF720A-0FE5-469E-99B1-CA5B64E1CF50" width="579" height="261" xmlns:xlink="http://www.w3.org/1999/xlink" xmlns:svg="http://www.w3.org/2000/svg"><defs><marker id="_8CB6D1E3-8C40-472B-A0DC-E05BC786F26Astart" refX="1" refY="5" markerUnits="userSpaceOnUse" markerWidth="17" markerHeight="11" orient="auto" fill="#000000" stroke="#000000"> 	  		<path id="_8CB6D1E3-8C40-472B-A0DC-E05BC786F26Aconditional" d="M 0 5 L 8 0 L 16 5 L 8 10 L 0 5" fill="white" stroke="#000000" stroke-width="1" display="none"/> 			<path id="_8CB6D1E3-8C40-472B-A0DC-E05BC786F26Adefault" d="M 5 0 L 11 10" fill="white" stroke="#000000" stroke-width="1" display="none"/> 	  	</marker><marker id="_8CB6D1E3-8C40-472B-A0DC-E05BC786F26Aend" refX="15" refY="6" markerUnits="userSpaceOnUse" markerWidth="15" markerHeight="12" orient="auto" fill="#000000" stroke="#000000"> 	  		<path id="_8CB6D1E3-8C40-472B-A0DC-E05BC786F26Aframe2" d="M 0 1 L 15 6 L 0 11z" fill="#000000" stroke="#000000" stroke-linejoin="round" stroke-width="2"/> 	  	</marker><marker id="_13667E57-7766-4C04-9AC1-BE49C798FD62start" refX="1" refY="5" markerUnits="userSpaceOnUse" markerWidth="17" markerHeight="11" orient="auto" fill="#000000" stroke="#000000"> 	  		<path id="_13667E57-7766-4C04-9AC1-BE49C798FD62conditional" d="M 0 5 L 8 0 L 16 5 L 8 10 L 0 5" fill="white" stroke="#000000" stroke-width="1" display="none"/> 			<path id="_13667E57-7766-4C04-9AC1-BE49C798FD62default" d="M 5 0 L 11 10" fill="white" stroke="#000000" stroke-width="1" display="none"/> 	  	</marker><marker id="_13667E57-7766-4C04-9AC1-BE49C798FD62end" refX="15" refY="6" markerUnits="userSpaceOnUse" markerWidth="15" markerHeight="12" orient="auto" fill="#000000" stroke="#000000"> 	  		<path id="_13667E57-7766-4C04-9AC1-BE49C798FD62frame2" d="M 0 1 L 15 6 L 0 11z" fill="#000000" stroke="#000000" stroke-linejoin="round" stroke-width="2"/> 	  	</marker><marker id="_15EEA863-4924-4D68-B4E9-86631CB30436start" refX="1" refY="5" markerUnits="userSpaceOnUse" markerWidth="17" markerHeight="11" orient="auto" fill="#000000" stroke="#000000"> 	  		<path id="_15EEA863-4924-4D68-B4E9-86631CB30436conditional" d="M 0 5 L 8 0 L 16 5 L 8 10 L 0 5" fill="white" stroke="#000000" stroke-width="1" display="none"/> 			<path id="_15EEA863-4924-4D68-B4E9-86631CB30436default" d="M 5 0 L 11 10" fill="white" stroke="#000000" stroke-width="1" display="none"/> 	  	</marker><marker id="_15EEA863-4924-4D68-B4E9-86631CB30436end" refX="15" refY="6" markerUnits="userSpaceOnUse" markerWidth="15" markerHeight="12" orient="auto" fill="#000000" stroke="#000000"> 	  		<path id="_15EEA863-4924-4D68-B4E9-86631CB30436frame2" d="M 0 1 L 15 6 L 0 11z" fill="#000000" stroke="#000000" stroke-linejoin="round" stroke-width="2"/> 	  	</marker></defs><g stroke="none" font-family="Verdana, sans-serif" font-size-adjust="none" font-style="normal" font-variant="normal" font-weight="normal" line-heigth="normal" font-size="12"><g class="stencils" transform="translate(16, 16)"><g class="me"/><g class="children"><g id="_E4467E89-9266-4ADE-8851-6CC320597856" bpmn2nodeid="processStartEvent"><g class="stencils" transform="translate(120, 165)"><g class="me"><g pointer-events="fill" id="_E4467E89-9266-4ADE-8851-6CC320597856">        <defs id="_E4467E89-9266-4ADE-8851-6CC320597856__E4467E89-9266-4ADE-8851-6CC320597856_5"> 		<radialGradient id="_E4467E89-9266-4ADE-8851-6CC320597856background" cx="10%" cy="10%" r="100%" fx="10%" fy="10%"> 			<stop offset="0%" stop-color="#ffffff" stop-opacity="1" id="_E4467E89-9266-4ADE-8851-6CC320597856__E4467E89-9266-4ADE-8851-6CC320597856_6"/> 			<stop id="_E4467E89-9266-4ADE-8851-6CC320597856fill_el" offset="100%" stop-color="#9acd32" stop-opacity="1"/> 		</radialGradient> 	</defs> 	     <circle id="_E4467E89-9266-4ADE-8851-6CC320597856bg_frame" cx="15" cy="15" r="15" stroke="#000000" fill="url(#_E4467E89-9266-4ADE-8851-6CC320597856background) white" stroke-width="1" style="stroke-dasharray: 5.5, 3"/>      <circle id="_E4467E89-9266-4ADE-8851-6CC320597856frame" cx="15" cy="15" r="15" stroke="#000000" fill="none" stroke-width="1" display="inherit"/>  	<text font-size="11" id="_E4467E89-9266-4ADE-8851-6CC320597856text_name" x="15" y="32" oryx:align="top center" stroke="black" stroke-width="0pt" letter-spacing="-0.01px" fill="#000000" text-anchor="middle" transform="rotate(0 15 32)" visibility="inherit" oryx:fontSize="11"/>   </g></g><g class="children" style="overflow:hidden"/><g class="edge"/></g><g class="controls"><g class="dockers"/><g class="magnets" transform="translate(120, 165)"><g pointer-events="all" display="none" transform="translate(7, 7)"><circle cx="8" cy="8" r="4" stroke="none" fill="red" fill-opacity="0.3"/></g></g></g></g><g id="_3C9757A7-A9B8-4E8F-8370-490B477F9DCF" bpmn2nodeid="_865FE257-FAEB-444C-99A7-90B28B15C368"><g class="stencils" transform="translate(510, 166)"><g class="me"><g pointer-events="fill" id="_3C9757A7-A9B8-4E8F-8370-490B477F9DCF">      <defs id="_3C9757A7-A9B8-4E8F-8370-490B477F9DCF__3C9757A7-A9B8-4E8F-8370-490B477F9DCF_5"> 		<radialGradient id="_3C9757A7-A9B8-4E8F-8370-490B477F9DCFbackground" cx="10%" cy="10%" r="100%" fx="10%" fy="10%"> 			<stop offset="0%" stop-color="#ffffff" stop-opacity="1" id="_3C9757A7-A9B8-4E8F-8370-490B477F9DCF__3C9757A7-A9B8-4E8F-8370-490B477F9DCF_6"/> 			<stop id="_3C9757A7-A9B8-4E8F-8370-490B477F9DCFfill_el" offset="100%" stop-color="#ff6347" stop-opacity="1"/> 		</radialGradient> 	</defs> 	     <circle id="_3C9757A7-A9B8-4E8F-8370-490B477F9DCFbg_frame" cx="14" cy="14" r="14" stroke="#000000" fill="url(#_3C9757A7-A9B8-4E8F-8370-490B477F9DCFbackground) white" stroke-width="3"/> 	<text font-size="11" id="_3C9757A7-A9B8-4E8F-8370-490B477F9DCFtext_name" x="14" y="30" oryx:align="top center" stroke="black" stroke-width="0pt" letter-spacing="-0.01px" fill="#000000" text-anchor="middle" transform="rotate(0 14 30)" visibility="inherit" oryx:fontSize="11"/>   </g></g><g class="children" style="overflow:hidden"/><g class="edge"/></g><g class="controls"><g class="dockers"/><g class="magnets" transform="translate(510, 166)"><g pointer-events="all" display="none" transform="translate(6, 6)"><circle cx="8" cy="8" r="4" stroke="none" fill="red" fill-opacity="0.3"/></g></g></g></g><g id="_A6450C1E-5070-4822-81C4-B499BC623885" bpmn2nodeid="_2A092254-9A62-4EC0-B8A7-465D050B3F4B"><g class="stencils" transform="translate(210, 140)"><g class="me"><g pointer-events="fill" oryx:minimumSize="50 40" id="_A6450C1E-5070-4822-81C4-B499BC623885">   	<defs id="_A6450C1E-5070-4822-81C4-B499BC623885__A6450C1E-5070-4822-81C4-B499BC623885_17"> 		<radialGradient id="_A6450C1E-5070-4822-81C4-B499BC623885background" cx="10%" cy="10%" r="100%" fx="10%" fy="10%"> 			<stop offset="0%" stop-color="#ffffff" stop-opacity="1" id="_A6450C1E-5070-4822-81C4-B499BC623885__A6450C1E-5070-4822-81C4-B499BC623885_18"/> 			<stop id="_A6450C1E-5070-4822-81C4-B499BC623885fill_el" offset="100%" stop-color="#fafad2" stop-opacity="1"/> 		</radialGradient> 		<radialGradient id="_A6450C1E-5070-4822-81C4-B499BC623885borderbackground" cx="10%" cy="10%" r="100%" fx="10%" fy="10%"> 			<stop offset="0%" stop-color="#ffffff" stop-opacity="1" id="_A6450C1E-5070-4822-81C4-B499BC623885__A6450C1E-5070-4822-81C4-B499BC623885_19"/> 			<stop id="_A6450C1E-5070-4822-81C4-B499BC623885fill_border" offset="100%" stop-color="#000000" stop-opacity="1" stroke="#000000"/> 		</radialGradient> 	</defs> 	 	<rect id="_A6450C1E-5070-4822-81C4-B499BC623885text_frame" oryx:anchors="bottom top right left" x="1" y="1" width="94" height="79" rx="10" ry="10" stroke="none" stroke-width="0" fill="none"/> 	<rect id="_A6450C1E-5070-4822-81C4-B499BC623885bg_frame" oryx:resize="vertical horizontal" x="0" y="0" width="100" height="80" rx="10" ry="10" stroke="#000000" stroke-width="1" fill="url(#_A6450C1E-5070-4822-81C4-B499BC623885background) #ffffcc"/> 		<text font-size="12" id="_A6450C1E-5070-4822-81C4-B499BC623885text_name" x="50" y="40" oryx:align="middle center" oryx:fittoelem="text_frame" stroke="black" text-anchor="middle" stroke-width="0pt" letter-spacing="-0.01px" fill="#000000" transform="rotate(0 50 40)" visibility="inherit" oryx:fontSize="12"><tspan x="50" y="40" dy="5">Script</tspan></text>     <g id="_A6450C1E-5070-4822-81C4-B499BC623885manualTask" transform="scale(0.7,0.7) translate(8,8)" display="none">     	<path oryx:anchors="top left" id="_A6450C1E-5070-4822-81C4-B499BC623885frame" style="opacity:1;fill:none;fill-opacity:1;stroke-width:1" d="M0.5,3.751l4.083-3.25c0,0,11.166,0.083,12.083,0.083s-2.417,2.917-1.5,2.917     s11.667,0,12.584,0c1.166,1.708-0.168,3.167-0.834,3.667s0.875,1.917-1,4.417c-0.75,0.25,0.75,1.875-1.333,3.333     c-1.167,0.583,0.583,1.542-1.25,2.833c-1.167,0-20.833,0.083-20.833,0.083l-2-1.333V3.751z" stroke="#000000"/> 		<path id="_A6450C1E-5070-4822-81C4-B499BC623885frame2" oryx:anchors="top left" style="opacity:1;fill:none;stroke-width:2" d="M 13.5 7 L 27 7" stroke="#000000"/> 		<path id="_A6450C1E-5070-4822-81C4-B499BC623885frame3" oryx:anchors="top left" style="opacity:1;fill:none;stroke-width:2" d="M 13.5 11 L 26 11" stroke="#000000"/> 		<path id="_A6450C1E-5070-4822-81C4-B499BC623885frame4" oryx:anchors="top left" style="opacity:1;fill:none;stroke-width:1.5" d="M 14 14.5 L 25 14.5" stroke="#000000"/> 		<path id="_A6450C1E-5070-4822-81C4-B499BC623885frame5" oryx:anchors="top left" style="opacity:1;fill:none;stroke-width:1.5" d="M 8.2 3.1 L 15 3.1" stroke="#000000"/> 	</g> 	 	<g id="_A6450C1E-5070-4822-81C4-B499BC623885businessRuleTask" transform="scale(0.7,0.7) translate(8,8)" display="none"> 		<rect id="_A6450C1E-5070-4822-81C4-B499BC623885frame6" oryx:anchors="top left" x="0" y="0" width="22" height="4" style="opacity:1;fill:#B3B1B3;fill-opacity:1;" stroke="#000000"/> 		<rect id="_A6450C1E-5070-4822-81C4-B499BC623885frame7" oryx:anchors="top left" x="0" y="4" style="opacity:1;fill:none;" width="22" height="12" stroke="#000000"/> 		<path id="_A6450C1E-5070-4822-81C4-B499BC623885frame8" oryx:anchors="top left" style="opacity:1;fill:none;" d="M 0 10 L 22 10" stroke="#000000"/> 		<path id="_A6450C1E-5070-4822-81C4-B499BC623885frame9" oryx:anchors="top left" style="opacity:1; fill:none;" d="M 7 4 L 7 16" stroke="#000000"/> 	</g> 	 	<g id="_A6450C1E-5070-4822-81C4-B499BC623885scriptTask" transform="scale(0.7,0.7) translate(8,8)" display="inherit"> 		<path oryx:anchors="top left" id="_A6450C1E-5070-4822-81C4-B499BC623885frame10" style="opacity:1;fill:none;" stroke="#000000" d="M6.402,0.5h14.5c0,0-5.833,2.833-5.833,5.583s4.417,6,4.417,9.167    s-4.167,5.083-4.167,5.083H0.235c0,0,5-2.667,5-5s-4.583-6.75-4.583-9.25S6.402,0.5,6.402,0.5z"/> 		<path oryx:anchors="top left" id="_A6450C1E-5070-4822-81C4-B499BC623885frame11" style="opacity:1;fill:none;stroke-width:1.5" d="M 3.5 4.5 L 13.5 4.5" stroke="#000000"/> 		<path oryx:anchors="top left" id="_A6450C1E-5070-4822-81C4-B499BC623885frame12" style="opacity:1;fill:none;stroke-width:1.5" d="M 3.8 8.5 L 13.8 8.5" stroke="#000000"/> 		<path oryx:anchors="top left" id="_A6450C1E-5070-4822-81C4-B499BC623885frame13" style="opacity:1;fill:none;stroke-width:1.5" d="M 6.3 12.5 L 16.3 12.5" stroke="#000000"/> 		<path oryx:anchors="top left" id="_A6450C1E-5070-4822-81C4-B499BC623885frame14" style="opacity:1;fill:none;stroke-width:1.5" d="M 6.5 16.5 L 16.5 16.5" stroke="#000000"/> 	</g> 	 	<g id="_A6450C1E-5070-4822-81C4-B499BC623885userTask" transform="scale(0.7,0.7) translate(8,8)" display="none"> 		<path id="_A6450C1E-5070-4822-81C4-B499BC623885frame15" oryx:anchors="top left" style="opacity:1;fill:#F4F6F7" stroke="#000000" d="M0.585,24.167h24.083v-7.833c0,0-2.333-3.917-7.083-5.167h-9.25    c-4.417,1.333-7.833,5.75-7.833,5.75L0.585,24.167z"/> 		<path id="_A6450C1E-5070-4822-81C4-B499BC623885frame16" oryx:anchors="top left" style="opacity:1;fill:none" d="M 6 20 L 6 24" stroke="#000000"/> 		<path id="_A6450C1E-5070-4822-81C4-B499BC623885frame17" oryx:anchors="top left" style="opacity:1;fill:none" d="M 20 20 L 20 24" stroke="#000000"/> 		<circle id="_A6450C1E-5070-4822-81C4-B499BC623885frame18" oryx:anchors="top left" fill="black" cx="13.002" cy="5.916" r="5.417" stroke="#000000"/> 		<path id="_A6450C1E-5070-4822-81C4-B499BC623885frame19" oryx:anchors="top left" style="opacity:1;fill:#F0EFF0;" stroke="#000000" d="M8.043,7.083c0,0,2.814-2.426,5.376-1.807s4.624-0.693,4.624-0.693    c0.25,1.688,0.042,3.75-1.458,5.584c0,0,1.083,0.75,1.083,1.5s0.125,1.875-1,3s-5.5,1.25-6.75,0S8.668,12.834,8.668,12    s0.583-1.25,1.25-1.917C8.835,9.5,7.419,7.708,8.043,7.083z"/> 	</g> 	 	<g id="_A6450C1E-5070-4822-81C4-B499BC623885serviceTask" transform="scale(0.7,0.7) translate(8,8)" display="none"> 		<polygon oryx:anchors="top left" id="_A6450C1E-5070-4822-81C4-B499BC623885frame20" style="opacity:1;fill:#ffffff" stroke="#000000" points="15.392,5.064 17.954,2.502 20.347,4.895 17.786,7.455     18.729,9.732 22.353,9.732 22.353,13.115 18.731,13.115 17.788,15.392 20.351,17.955 17.958,20.347 15.397,17.786 13.12,18.729     13.12,22.353 9.737,22.353 9.737,18.731 7.46,17.788 4.897,20.35 2.506,17.958 5.066,15.397 4.124,13.12 0.5,13.12 0.5,9.737     4.121,9.737 5.065,7.461 2.503,4.898 4.895,2.506 7.455,5.066 9.732,4.125 9.732,0.5 13.116,0.5 13.116,4.121 "/> 		<circle oryx:anchors="top left" id="_A6450C1E-5070-4822-81C4-B499BC623885frame21" style="opacity:1;fill:none" stroke="#000000" cx="11.427" cy="11.426" r="3.714"/> 		<polygon oryx:anchors="top left" id="_A6450C1E-5070-4822-81C4-B499BC623885frame22" style="opacity:1;fill:#ffffff" stroke="#000000" points="21.392,11.064 23.954,8.502 26.347,10.895 23.786,13.455     24.729,15.732 28.353,15.732 28.353,19.115 24.731,19.115 23.788,21.392 26.351,23.955 23.958,26.347 21.397,23.786 19.12,24.729     19.12,28.353 15.737,28.353 15.737,24.731 13.46,23.788 10.897,26.35 8.506,23.958 11.066,21.397 10.124,19.12 6.5,19.12     6.5,15.737 10.121,15.737 11.065,13.461 8.503,10.898 10.895,8.506 13.455,11.066 15.732,10.125 15.732,6.5 19.116,6.5     19.116,10.121 "/> 		<circle oryx:anchors="top left" id="_A6450C1E-5070-4822-81C4-B499BC623885frame23" style="opacity:1;fill:none;" stroke="#000000" cx="17.427" cy="17.426" r="3.714"/> 	</g> 	 	<g id="_A6450C1E-5070-4822-81C4-B499BC623885sendTask" display="none"> 		<path id="_A6450C1E-5070-4822-81C4-B499BC623885stframe24" oryx:anchors="left top" stroke="#FFFFFF" fill="black" stroke-width="1" d="M8,11 L8,21 L24,21 L24,11 L16,17z"/> 		<path id="_A6450C1E-5070-4822-81C4-B499BC623885stframe25" oryx:anchors="left top" stroke="#FFFFFF" fill="black" stroke-width="1" d="M7,10 L16,17 L25 10z"/> 	</g> 	 	<g id="_A6450C1E-5070-4822-81C4-B499BC623885receiveTask" display="none"> 		<path id="_A6450C1E-5070-4822-81C4-B499BC623885frame26" oryx:anchors="left top" stroke="#000000" fill="none" stroke-width="1" d="M8,11 L8,21 L24,21 L24,11z M8,11 L16,17 L24,11"/> 	</g> 	 	<g id="_A6450C1E-5070-4822-81C4-B499BC623885none" display="inherit"/>  	<g id="_A6450C1E-5070-4822-81C4-B499BC623885sequential" display="none">         <path oryx:anchors="bottom" fill="none" stroke="#000000" stroke-width="2" d="M46,76h10M46,72h10 M46,68h10" id="_A6450C1E-5070-4822-81C4-B499BC623885__A6450C1E-5070-4822-81C4-B499BC623885_20"/>     </g>   </g></g><g class="children" style="overflow:hidden"/><g class="edge"/></g><g class="controls"><g class="dockers"/><g class="magnets" transform="translate(210, 140)"><g pointer-events="all" display="none" transform="translate(-7, 12)"><circle cx="8" cy="8" r="4" stroke="none" fill="red" fill-opacity="0.3"/></g><g pointer-events="all" display="none" transform="translate(-7, 32)"><circle cx="8" cy="8" r="4" stroke="none" fill="red" fill-opacity="0.3"/></g><g pointer-events="all" display="none" transform="translate(-7, 52)"><circle cx="8" cy="8" r="4" stroke="none" fill="red" fill-opacity="0.3"/></g><g pointer-events="all" display="none" transform="translate(17, 71)"><circle cx="8" cy="8" r="4" stroke="none" fill="red" fill-opacity="0.3"/></g><g pointer-events="all" display="none" transform="translate(42, 71)"><circle cx="8" cy="8" r="4" stroke="none" fill="red" fill-opacity="0.3"/></g><g pointer-events="all" display="none" transform="translate(67, 71)"><circle cx="8" cy="8" r="4" stroke="none" fill="red" fill-opacity="0.3"/></g><g pointer-events="all" display="none" transform="translate(91, 12)"><circle cx="8" cy="8" r="4" stroke="none" fill="red" fill-opacity="0.3"/></g><g pointer-events="all" display="none" transform="translate(91, 32)"><circle cx="8" cy="8" r="4" stroke="none" fill="red" fill-opacity="0.3"/></g><g pointer-events="all" display="none" transform="translate(91, 52)"><circle cx="8" cy="8" r="4" stroke="none" fill="red" fill-opacity="0.3"/></g><g pointer-events="all" display="none" transform="translate(17, -7)"><circle cx="8" cy="8" r="4" stroke="none" fill="red" fill-opacity="0.3"/></g><g pointer-events="all" display="none" transform="translate(42, -7)"><circle cx="8" cy="8" r="4" stroke="none" fill="red" fill-opacity="0.3"/></g><g pointer-events="all" display="none" transform="translate(67, -7)"><circle cx="8" cy="8" r="4" stroke="none" fill="red" fill-opacity="0.3"/></g><g pointer-events="all" display="none" transform="translate(42, 32)"><circle cx="8" cy="8" r="4" stroke="none" fill="red" fill-opacity="0.3"/></g></g></g></g><g id="_3213CC00-DBAE-44DC-89B6-CD76595C666A" bpmn2nodeid="_DE7DF4E8-2125-4587-B43C-94C6A708D04E"><g class="stencils" transform="translate(345, 15)"><g class="me"><g pointer-events="fill" oryx:minimumSize="50 40" id="_3213CC00-DBAE-44DC-89B6-CD76595C666A">   	<defs id="_3213CC00-DBAE-44DC-89B6-CD76595C666A__3213CC00-DBAE-44DC-89B6-CD76595C666A_17"> 		<radialGradient id="_3213CC00-DBAE-44DC-89B6-CD76595C666Abackground" cx="10%" cy="10%" r="100%" fx="10%" fy="10%"> 			<stop offset="0%" stop-color="#ffffff" stop-opacity="1" id="_3213CC00-DBAE-44DC-89B6-CD76595C666A__3213CC00-DBAE-44DC-89B6-CD76595C666A_18"/> 			<stop id="_3213CC00-DBAE-44DC-89B6-CD76595C666Afill_el" offset="100%" stop-color="#fafad2" stop-opacity="1"/> 		</radialGradient> 		<radialGradient id="_3213CC00-DBAE-44DC-89B6-CD76595C666Aborderbackground" cx="10%" cy="10%" r="100%" fx="10%" fy="10%"> 			<stop offset="0%" stop-color="#ffffff" stop-opacity="1" id="_3213CC00-DBAE-44DC-89B6-CD76595C666A__3213CC00-DBAE-44DC-89B6-CD76595C666A_19"/> 			<stop id="_3213CC00-DBAE-44DC-89B6-CD76595C666Afill_border" offset="100%" stop-color="#000000" stop-opacity="1" stroke="#000000"/> 		</radialGradient> 	</defs> 	 	<rect id="_3213CC00-DBAE-44DC-89B6-CD76595C666Atext_frame" oryx:anchors="bottom top right left" x="1" y="1" width="94" height="79" rx="10" ry="10" stroke="none" stroke-width="0" fill="none"/> 	<rect id="_3213CC00-DBAE-44DC-89B6-CD76595C666Abg_frame" oryx:resize="vertical horizontal" x="0" y="0" width="100" height="80" rx="10" ry="10" stroke="#000000" stroke-width="1" fill="url(#_3213CC00-DBAE-44DC-89B6-CD76595C666Abackground) #ffffcc"/> 		<text font-size="12" id="_3213CC00-DBAE-44DC-89B6-CD76595C666Atext_name" x="50" y="40" oryx:align="middle center" oryx:fittoelem="text_frame" stroke="black" text-anchor="middle" stroke-width="0pt" letter-spacing="-0.01px" fill="#000000" transform="rotate(0 50 40)" visibility="inherit" oryx:fontSize="12"><tspan x="50" y="40" dy="5">task1</tspan></text>     <g id="_3213CC00-DBAE-44DC-89B6-CD76595C666AmanualTask" transform="scale(0.7,0.7) translate(8,8)" display="none">     	<path oryx:anchors="top left" id="_3213CC00-DBAE-44DC-89B6-CD76595C666Aframe" style="opacity:1;fill:none;fill-opacity:1;stroke-width:1" d="M0.5,3.751l4.083-3.25c0,0,11.166,0.083,12.083,0.083s-2.417,2.917-1.5,2.917     s11.667,0,12.584,0c1.166,1.708-0.168,3.167-0.834,3.667s0.875,1.917-1,4.417c-0.75,0.25,0.75,1.875-1.333,3.333     c-1.167,0.583,0.583,1.542-1.25,2.833c-1.167,0-20.833,0.083-20.833,0.083l-2-1.333V3.751z" stroke="#000000"/> 		<path id="_3213CC00-DBAE-44DC-89B6-CD76595C666Aframe2" oryx:anchors="top left" style="opacity:1;fill:none;stroke-width:2" d="M 13.5 7 L 27 7" stroke="#000000"/> 		<path id="_3213CC00-DBAE-44DC-89B6-CD76595C666Aframe3" oryx:anchors="top left" style="opacity:1;fill:none;stroke-width:2" d="M 13.5 11 L 26 11" stroke="#000000"/> 		<path id="_3213CC00-DBAE-44DC-89B6-CD76595C666Aframe4" oryx:anchors="top left" style="opacity:1;fill:none;stroke-width:1.5" d="M 14 14.5 L 25 14.5" stroke="#000000"/> 		<path id="_3213CC00-DBAE-44DC-89B6-CD76595C666Aframe5" oryx:anchors="top left" style="opacity:1;fill:none;stroke-width:1.5" d="M 8.2 3.1 L 15 3.1" stroke="#000000"/> 	</g> 	 	<g id="_3213CC00-DBAE-44DC-89B6-CD76595C666AbusinessRuleTask" transform="scale(0.7,0.7) translate(8,8)" display="none"> 		<rect id="_3213CC00-DBAE-44DC-89B6-CD76595C666Aframe6" oryx:anchors="top left" x="0" y="0" width="22" height="4" style="opacity:1;fill:#B3B1B3;fill-opacity:1;" stroke="#000000"/> 		<rect id="_3213CC00-DBAE-44DC-89B6-CD76595C666Aframe7" oryx:anchors="top left" x="0" y="4" style="opacity:1;fill:none;" width="22" height="12" stroke="#000000"/> 		<path id="_3213CC00-DBAE-44DC-89B6-CD76595C666Aframe8" oryx:anchors="top left" style="opacity:1;fill:none;" d="M 0 10 L 22 10" stroke="#000000"/> 		<path id="_3213CC00-DBAE-44DC-89B6-CD76595C666Aframe9" oryx:anchors="top left" style="opacity:1; fill:none;" d="M 7 4 L 7 16" stroke="#000000"/> 	</g> 	 	<g id="_3213CC00-DBAE-44DC-89B6-CD76595C666AscriptTask" transform="scale(0.7,0.7) translate(8,8)" display="none"> 		<path oryx:anchors="top left" id="_3213CC00-DBAE-44DC-89B6-CD76595C666Aframe10" style="opacity:1;fill:none;" stroke="#000000" d="M6.402,0.5h14.5c0,0-5.833,2.833-5.833,5.583s4.417,6,4.417,9.167    s-4.167,5.083-4.167,5.083H0.235c0,0,5-2.667,5-5s-4.583-6.75-4.583-9.25S6.402,0.5,6.402,0.5z"/> 		<path oryx:anchors="top left" id="_3213CC00-DBAE-44DC-89B6-CD76595C666Aframe11" style="opacity:1;fill:none;stroke-width:1.5" d="M 3.5 4.5 L 13.5 4.5" stroke="#000000"/> 		<path oryx:anchors="top left" id="_3213CC00-DBAE-44DC-89B6-CD76595C666Aframe12" style="opacity:1;fill:none;stroke-width:1.5" d="M 3.8 8.5 L 13.8 8.5" stroke="#000000"/> 		<path oryx:anchors="top left" id="_3213CC00-DBAE-44DC-89B6-CD76595C666Aframe13" style="opacity:1;fill:none;stroke-width:1.5" d="M 6.3 12.5 L 16.3 12.5" stroke="#000000"/> 		<path oryx:anchors="top left" id="_3213CC00-DBAE-44DC-89B6-CD76595C666Aframe14" style="opacity:1;fill:none;stroke-width:1.5" d="M 6.5 16.5 L 16.5 16.5" stroke="#000000"/> 	</g> 	 	<g id="_3213CC00-DBAE-44DC-89B6-CD76595C666AuserTask" transform="scale(0.7,0.7) translate(8,8)" display="inherit"> 		<path id="_3213CC00-DBAE-44DC-89B6-CD76595C666Aframe15" oryx:anchors="top left" style="opacity:1;fill:#F4F6F7" stroke="#000000" d="M0.585,24.167h24.083v-7.833c0,0-2.333-3.917-7.083-5.167h-9.25    c-4.417,1.333-7.833,5.75-7.833,5.75L0.585,24.167z"/> 		<path id="_3213CC00-DBAE-44DC-89B6-CD76595C666Aframe16" oryx:anchors="top left" style="opacity:1;fill:none" d="M 6 20 L 6 24" stroke="#000000"/> 		<path id="_3213CC00-DBAE-44DC-89B6-CD76595C666Aframe17" oryx:anchors="top left" style="opacity:1;fill:none" d="M 20 20 L 20 24" stroke="#000000"/> 		<circle id="_3213CC00-DBAE-44DC-89B6-CD76595C666Aframe18" oryx:anchors="top left" fill="black" cx="13.002" cy="5.916" r="5.417" stroke="#000000"/> 		<path id="_3213CC00-DBAE-44DC-89B6-CD76595C666Aframe19" oryx:anchors="top left" style="opacity:1;fill:#F0EFF0;" stroke="#000000" d="M8.043,7.083c0,0,2.814-2.426,5.376-1.807s4.624-0.693,4.624-0.693    c0.25,1.688,0.042,3.75-1.458,5.584c0,0,1.083,0.75,1.083,1.5s0.125,1.875-1,3s-5.5,1.25-6.75,0S8.668,12.834,8.668,12    s0.583-1.25,1.25-1.917C8.835,9.5,7.419,7.708,8.043,7.083z"/> 	</g> 	 	<g id="_3213CC00-DBAE-44DC-89B6-CD76595C666AserviceTask" transform="scale(0.7,0.7) translate(8,8)" display="none"> 		<polygon oryx:anchors="top left" id="_3213CC00-DBAE-44DC-89B6-CD76595C666Aframe20" style="opacity:1;fill:#ffffff" stroke="#000000" points="15.392,5.064 17.954,2.502 20.347,4.895 17.786,7.455     18.729,9.732 22.353,9.732 22.353,13.115 18.731,13.115 17.788,15.392 20.351,17.955 17.958,20.347 15.397,17.786 13.12,18.729     13.12,22.353 9.737,22.353 9.737,18.731 7.46,17.788 4.897,20.35 2.506,17.958 5.066,15.397 4.124,13.12 0.5,13.12 0.5,9.737     4.121,9.737 5.065,7.461 2.503,4.898 4.895,2.506 7.455,5.066 9.732,4.125 9.732,0.5 13.116,0.5 13.116,4.121 "/> 		<circle oryx:anchors="top left" id="_3213CC00-DBAE-44DC-89B6-CD76595C666Aframe21" style="opacity:1;fill:none" stroke="#000000" cx="11.427" cy="11.426" r="3.714"/> 		<polygon oryx:anchors="top left" id="_3213CC00-DBAE-44DC-89B6-CD76595C666Aframe22" style="opacity:1;fill:#ffffff" stroke="#000000" points="21.392,11.064 23.954,8.502 26.347,10.895 23.786,13.455     24.729,15.732 28.353,15.732 28.353,19.115 24.731,19.115 23.788,21.392 26.351,23.955 23.958,26.347 21.397,23.786 19.12,24.729     19.12,28.353 15.737,28.353 15.737,24.731 13.46,23.788 10.897,26.35 8.506,23.958 11.066,21.397 10.124,19.12 6.5,19.12     6.5,15.737 10.121,15.737 11.065,13.461 8.503,10.898 10.895,8.506 13.455,11.066 15.732,10.125 15.732,6.5 19.116,6.5     19.116,10.121 "/> 		<circle oryx:anchors="top left" id="_3213CC00-DBAE-44DC-89B6-CD76595C666Aframe23" style="opacity:1;fill:none;" stroke="#000000" cx="17.427" cy="17.426" r="3.714"/> 	</g> 	 	<g id="_3213CC00-DBAE-44DC-89B6-CD76595C666AsendTask" display="none"> 		<path id="_3213CC00-DBAE-44DC-89B6-CD76595C666Astframe24" oryx:anchors="left top" stroke="#FFFFFF" fill="black" stroke-width="1" d="M8,11 L8,21 L24,21 L24,11 L16,17z"/> 		<path id="_3213CC00-DBAE-44DC-89B6-CD76595C666Astframe25" oryx:anchors="left top" stroke="#FFFFFF" fill="black" stroke-width="1" d="M7,10 L16,17 L25 10z"/> 	</g> 	 	<g id="_3213CC00-DBAE-44DC-89B6-CD76595C666AreceiveTask" display="none"> 		<path id="_3213CC00-DBAE-44DC-89B6-CD76595C666Aframe26" oryx:anchors="left top" stroke="#000000" fill="none" stroke-width="1" d="M8,11 L8,21 L24,21 L24,11z M8,11 L16,17 L24,11"/> 	</g> 	 	<g id="_3213CC00-DBAE-44DC-89B6-CD76595C666Anone" display="inherit"/>  	<g id="_3213CC00-DBAE-44DC-89B6-CD76595C666Asequential" display="none">         <path oryx:anchors="bottom" fill="none" stroke="#000000" stroke-width="2" d="M46,76h10M46,72h10 M46,68h10" id="_3213CC00-DBAE-44DC-89B6-CD76595C666A__3213CC00-DBAE-44DC-89B6-CD76595C666A_20"/>     </g>   </g></g><g class="children" style="overflow:hidden"/><g class="edge"/></g><g class="controls"><g class="dockers"/><g class="magnets" transform="translate(345, 15)"><g pointer-events="all" display="none" transform="translate(-7, 12)"><circle cx="8" cy="8" r="4" stroke="none" fill="red" fill-opacity="0.3"/></g><g pointer-events="all" display="none" transform="translate(-7, 32)"><circle cx="8" cy="8" r="4" stroke="none" fill="red" fill-opacity="0.3"/></g><g pointer-events="all" display="none" transform="translate(-7, 52)"><circle cx="8" cy="8" r="4" stroke="none" fill="red" fill-opacity="0.3"/></g><g pointer-events="all" display="none" transform="translate(17, 71)"><circle cx="8" cy="8" r="4" stroke="none" fill="red" fill-opacity="0.3"/></g><g pointer-events="all" display="none" transform="translate(42, 71)"><circle cx="8" cy="8" r="4" stroke="none" fill="red" fill-opacity="0.3"/></g><g pointer-events="all" display="none" transform="translate(67, 71)"><circle cx="8" cy="8" r="4" stroke="none" fill="red" fill-opacity="0.3"/></g><g pointer-events="all" display="none" transform="translate(91, 12)"><circle cx="8" cy="8" r="4" stroke="none" fill="red" fill-opacity="0.3"/></g><g pointer-events="all" display="none" transform="translate(91, 32)"><circle cx="8" cy="8" r="4" stroke="none" fill="red" fill-opacity="0.3"/></g><g pointer-events="all" display="none" transform="translate(91, 52)"><circle cx="8" cy="8" r="4" stroke="none" fill="red" fill-opacity="0.3"/></g><g pointer-events="all" display="none" transform="translate(17, -7)"><circle cx="8" cy="8" r="4" stroke="none" fill="red" fill-opacity="0.3"/></g><g pointer-events="all" display="none" transform="translate(42, -7)"><circle cx="8" cy="8" r="4" stroke="none" fill="red" fill-opacity="0.3"/></g><g pointer-events="all" display="none" transform="translate(67, -7)"><circle cx="8" cy="8" r="4" stroke="none" fill="red" fill-opacity="0.3"/></g><g pointer-events="all" display="none" transform="translate(42, 32)"><circle cx="8" cy="8" r="4" stroke="none" fill="red" fill-opacity="0.3"/></g></g></g></g></g><g class="edge"><g id="_8CB6D1E3-8C40-472B-A0DC-E05BC786F26A" bpmn2nodeid="_1C9CB3D7-9DA9-41E9-A0E3-1E62AE9B1C46"><g class="stencils"><g class="me"><g pointer-events="painted" bpmn2nodeid="_CB96B9FA-FD3C-44CE-8DBE-65CC8868EEDE"><path id="_8CB6D1E3-8C40-472B-A0DC-E05BC786F26A_1" d="M150.6484375 180L209.1953125 180 " stroke="#000000" fill="none" stroke-width="2" stroke-linecap="round" stroke-linejoin="round" marker-start="url(#_8CB6D1E3-8C40-472B-A0DC-E05BC786F26Astart)" marker-end="url(#_8CB6D1E3-8C40-472B-A0DC-E05BC786F26Aend)"/></g><text id="_8CB6D1E3-8C40-472B-A0DC-E05BC786F26Atext_name" font-size="12" x="164.6484375" y="166" oryx:edgePosition="startTop" stroke-width="0pt" letter-spacing="-0.01px" fill="#000000" text-anchor="start" transform="rotate(360 150.6484375 180)" visibility="inherit" oryx:fontSize="12"/></g><g class="children" style="overflow:hidden"/><g class="edge"/></g><g class="controls"><g class="dockers"/><g class="magnets"/></g></g><g id="_13667E57-7766-4C04-9AC1-BE49C798FD62" bpmn2nodeid="_11967435-ED5B-436C-AC06-A408963F5C47"><g class="stencils"><g class="me"><g pointer-events="painted" bpmn2nodeid="_AA2F9785-36B7-401F-BE2A-E5D4F1A5E436"><path id="_13667E57-7766-4C04-9AC1-BE49C798FD62_1" d="M303.4486044240182 139.7698107185017L351.5513955759818 95.23018928149831 " stroke="#000000" fill="none" stroke-width="2" stroke-linecap="round" stroke-linejoin="round" marker-start="url(#_13667E57-7766-4C04-9AC1-BE49C798FD62start)" marker-end="url(#_13667E57-7766-4C04-9AC1-BE49C798FD62end)"/></g><text id="_13667E57-7766-4C04-9AC1-BE49C798FD62text_name" font-size="12" x="317.4486044240182" y="125.7698107185017" oryx:edgePosition="startTop" stroke-width="0pt" letter-spacing="-0.01px" fill="#000000" text-anchor="start" transform="rotate(317.20259816176576 303.4486044240182 139.7698107185017)" visibility="inherit" oryx:fontSize="12"/></g><g class="children" style="overflow:hidden"/><g class="edge"/></g><g class="controls"><g class="dockers"/><g class="magnets"/></g></g><g id="_15EEA863-4924-4D68-B4E9-86631CB30436" bpmn2nodeid="_32A05576-3679-4A74-B98D-0B01ED3D115C"><g class="stencils"><g class="me"><g pointer-events="painted" bpmn2nodeid="_07FCDBD0-6913-4266-A32B-4953998FB16F"><path id="_15EEA863-4924-4D68-B4E9-86631CB30436_1" d="M436.534559525384 95.24666620676744L513.707627974616 170.02677129323254 " stroke="#000000" fill="none" stroke-width="2" stroke-linecap="round" stroke-linejoin="round" marker-start="url(#_15EEA863-4924-4D68-B4E9-86631CB30436start)" marker-end="url(#_15EEA863-4924-4D68-B4E9-86631CB30436end)"/></g><text id="_15EEA863-4924-4D68-B4E9-86631CB30436text_name" font-size="12" x="450.534559525384" y="81.24666620676744" oryx:edgePosition="startTop" stroke-width="0pt" letter-spacing="-0.01px" fill="#000000" text-anchor="start" transform="rotate(44.09777883846982 436.534559525384 95.24666620676744)" visibility="inherit" oryx:fontSize="12"/></g><g class="children" style="overflow:hidden"/><g class="edge"/></g><g class="controls"><g class="dockers"/><g class="magnets"/></g></g></g><text id="_7CE82AAD-8D4C-45BA-B249-3CD1A43C5E64" style="stroke-width:1;fill:rgb(177,194,214);font-family:arial;font-weight:bold" font-size="12" onclick="ORYX.Plugins.CanvasTitle.openTextualAnalysis()" onmouseover="ORYX.Plugins.CanvasTitle.addToolTip('_7CE82AAD-8D4C-45BA-B249-3CD1A43C5E64')" transform="translate(10, 20)">simple1 v.1.0 (TestProject.simple1)</text></g></g></svg>