<?xml version="1.0" encoding="utf-8"?>
<!-- Generator: Adobe Illustrator 13.0.2, SVG Export Plug-In . SVG Version: 6.00 Build 14948)  -->
<!DOCTYPE svg PUBLIC "-//W3C//DTD SVG 1.1//EN" "http://www.w3.org/Graphics/SVG/1.1/DTD/svg11.dtd">
<svg version="1.1" id="Layer_1" xmlns="http://www.w3.org/2000/svg" xmlns:xlink="http://www.w3.org/1999/xlink" x="0px" y="0px"
	 width="149.835px" height="117.209px" viewBox="0 0 149.835 117.209" enable-background="new 0 0 149.835 117.209"
	 xml:space="preserve">
<g>
	<path fill="#009EE3" d="M75.781,52.428c14.311,0,25.915-11.74,25.915-26.213C101.696,11.735,90.091,0,75.781,0
		c-14.31,0-25.906,11.735-25.906,26.215C49.875,40.688,61.471,52.428,75.781,52.428"/>
	<path fill="#009EE3" d="M0.011,58.298v11.639h149.824V46.613c0,0-40.184-0.133-55.086,0.991c0,0-19.555,22.122-45.408,3.639
		C49.342,51.243,13.86,55.082,0.011,58.298"/>
	<polygon fill="#003864" points="28.468,116.737 17.793,103.842 17.793,116.737 0,116.737 0,81.749 17.793,81.749 17.793,97.146 
		17.793,97.188 28.291,81.688 49.623,81.688 34.225,99.638 48.903,116.737 	"/>
	<path fill="#003864" d="M79.876,102.955H70.48v6.603h8.605c0,0,4.908,0.58,4.725-3.617c0,0,0.064-3.013-3.751-3.013L79.876,102.955
		z M79.876,89.865H70.48v6.584h8.605c0,0,4.908,0.6,4.725-3.599c0,0,0.064-3.01-3.751-3.01L79.876,89.865z M90.727,116.748
		l-1.11-0.017H52.746V81.765h36.871c11.752,0.029,11.362,7.988,11.362,7.988c0.67,9.02-10.845,9.66-10.845,9.66
		c12.777,0.566,11.211,8.447,11.211,8.447c-1.211,8.902-10.426,8.888-10.426,8.888H90.727z"/>
	<path fill="#003864" d="M126.917,116.808c0,0,13.397,1.586,22.838-1.539V103.38h-0.182c0,0-10.136,6.406-21.158,0.869l-0.188-0.102
		c0,0-8.136-4.795,0.405-10.295c0,0,7.994-5.731,21.179,1.021l-0.056-11.936c0,0-17.223-4.889-32.879,0.465
		c0,0-12.289,3.389-12.363,15.524c0,0-1.352,16.039,22.074,17.826L126.917,116.808z"/>
</g>
</svg>
